<?xml version="1.0" standalone="no"?><svg xmlns:xlink="http://www.w3.org/1999/xlink" xmlns="http://www.w3.org/2000/svg" viewBox="0 0 1000 545.4636912958457" preserveAspectRatio="xMaxYMax slice"><g transform="scale(1.5719414734750596)"><rect x="0" y="0" width="636.1666666666667" height="347" fill="#ffffff"/><circle cx="28.915" cy="28.915" r="28.915" fill="#fdfda4"/><rect x="57.833333333333336" y="0" width="57.833333333333336" height="57.833333333333336" fill="#ffffff"/><circle cx="72.28999999999999" cy="14.46" r="14.46" fill="#b7b7b8"/><circle cx="101.21000000000001" cy="14.46" r="14.46" fill="#fafa3d"/><circle cx="72.28999999999999" cy="43.38" r="14.46" fill="#8b8c8d"/><circle cx="101.21000000000001" cy="43.38" r="14.46" fill="#616264"/><circle cx="144.585" cy="28.915" r="28.915" fill="#626364"/><circle cx="202.415" cy="28.915" r="28.915" fill="#fafa44"/><circle cx="260.245" cy="28.915" r="28.915" fill="#fdfdb8"/><rect x="289.1666666666667" y="0" width="57.833333333333336" height="57.833333333333336" fill="#ffffff"/><circle cx="303.63" cy="14.46" r="14.46" fill="#c3c3c4"/><circle cx="332.53999999999996" cy="14.46" r="14.46" fill="#b1b1b2"/><circle cx="303.63" cy="43.38" r="14.46" fill="#fbfb5b"/><circle cx="332.53999999999996" cy="43.38" r="14.46" fill="#bcbcbd"/><circle cx="375.915" cy="28.915" r="28.915" fill="#fafa43"/><rect x="404.83333333333337" y="0" width="57.833333333333336" height="57.833333333333336" fill="#ffffff"/><circle cx="419.28999999999996" cy="14.46" r="14.46" fill="#fffff7"/><circle cx="448.21" cy="14.46" r="14.46" fill="#aaabac"/><circle cx="419.28999999999996" cy="43.38" r="14.46" fill="#777779"/><circle cx="448.21" cy="43.38" r="14.46" fill="#515254"/><circle cx="491.58500000000004" cy="28.915" r="28.915" fill="#353638"/><circle cx="549.415" cy="28.915" r="28.915" fill="#fafa39"/><rect x="578.3333333333334" y="0" width="57.833333333333336" height="57.833333333333336" fill="#ffffff"/><circle cx="592.7900000000001" cy="14.46" r="14.46" fill="#fafa3d"/><circle cx="621.71" cy="14.46" r="14.46" fill="#f6f6f6"/><circle cx="592.7900000000001" cy="43.38" r="14.46" fill="#fbfb6f"/><circle cx="621.71" cy="43.38" r="14.46" fill="#f6f6f7"/><rect x="0" y="57.833333333333336" width="57.833333333333336" height="57.833333333333336" fill="#ffffff"/><circle cx="14.46" cy="72.28999999999999" r="14.46" fill="#a2a2a3"/><circle cx="43.38" cy="72.28999999999999" r="14.46" fill="#9fa0a1"/><circle cx="14.46" cy="101.21000000000001" r="14.46" fill="#fdfdab"/><circle cx="43.38" cy="101.21000000000001" r="14.46" fill="#d6d6d6"/><circle cx="86.745" cy="86.745" r="28.915" fill="#fefec6"/><rect x="115.66666666666667" y="57.833333333333336" width="57.833333333333336" height="57.833333333333336" fill="#ffffff"/><circle cx="130.13" cy="72.28999999999999" r="14.46" fill="#717273"/><circle cx="159.04000000000002" cy="72.28999999999999" r="14.46" fill="#fcfc8f"/><circle cx="130.13" cy="101.21000000000001" r="14.46" fill="#fcfc86"/><circle cx="159.04000000000002" cy="101.21000000000001" r="14.46" fill="#616264"/><rect x="173.5" y="57.833333333333336" width="57.833333333333336" height="57.833333333333336" fill="#ffffff"/><circle cx="187.96" cy="72.28999999999999" r="14.46" fill="#666768"/><circle cx="216.88" cy="72.28999999999999" r="14.46" fill="#414244"/><circle cx="187.96" cy="101.21000000000001" r="14.46" fill="#fbfb5c"/><circle cx="216.88" cy="101.21000000000001" r="14.46" fill="#757677"/><circle cx="260.245" cy="86.745" r="28.915" fill="#fffffd"/><circle cx="318.08500000000004" cy="86.745" r="28.915" fill="#fdfdb5"/><rect x="347" y="57.833333333333336" width="57.833333333333336" height="57.833333333333336" fill="#ffffff"/><circle cx="361.46" cy="72.28999999999999" r="14.46" fill="#3f4041"/><circle cx="390.38" cy="72.28999999999999" r="14.46" fill="#b0b0b1"/><circle cx="361.46" cy="101.21000000000001" r="14.46" fill="#e4e4e4"/><circle cx="390.38" cy="101.21000000000001" r="14.46" fill="#dedfdf"/><circle cx="433.745" cy="86.745" r="28.915" fill="#dfdfdf"/><circle cx="491.58500000000004" cy="86.745" r="28.915" fill="#f6f6f6"/><circle cx="549.415" cy="86.745" r="28.915" fill="#fbfb6a"/><rect x="578.3333333333334" y="57.833333333333336" width="57.833333333333336" height="57.833333333333336" fill="#ffffff"/><circle cx="592.7900000000001" cy="72.28999999999999" r="14.46" fill="#606162"/><circle cx="621.71" cy="72.28999999999999" r="14.46" fill="#fcfc75"/><circle cx="592.7900000000001" cy="101.21000000000001" r="14.46" fill="#fbfb63"/><circle cx="621.71" cy="101.21000000000001" r="14.46" fill="#fbfb6f"/><rect x="0" y="115.66666666666667" width="57.833333333333336" height="57.833333333333336" fill="#ffffff"/><circle cx="14.46" cy="130.13" r="14.46" fill="#f3f3f3"/><circle cx="43.38" cy="130.13" r="14.46" fill="#fcfc72"/><circle cx="14.46" cy="159.04000000000002" r="14.46" fill="#fbfb61"/><circle cx="43.38" cy="159.04000000000002" r="14.46" fill="#fcfc86"/><rect x="57.833333333333336" y="115.66666666666667" width="57.833333333333336" height="57.833333333333336" fill="#ffffff"/><circle cx="72.28999999999999" cy="130.13" r="14.46" fill="#767778"/><circle cx="101.21000000000001" cy="130.13" r="14.46" fill="#515253"/><circle cx="72.28999999999999" cy="159.04000000000002" r="14.46" fill="#fdfdbf"/><circle cx="101.21000000000001" cy="159.04000000000002" r="14.46" fill="#2c2d2f"/><circle cx="144.585" cy="144.585" r="28.915" fill="#fefedd"/><circle cx="202.415" cy="144.585" r="28.915" fill="#e0e0e0"/><rect x="231.33333333333334" y="115.66666666666667" width="57.833333333333336" height="57.833333333333336" fill="#ffffff"/><circle cx="245.79000000000002" cy="130.13" r="14.46" fill="#afb0b0"/><circle cx="274.71" cy="130.13" r="14.46" fill="#fdfda3"/><circle cx="245.79000000000002" cy="159.04000000000002" r="14.46" fill="#767778"/><circle cx="274.71" cy="159.04000000000002" r="14.46" fill="#58585a"/><circle cx="318.08500000000004" cy="144.585" r="28.915" fill="#fbfb56"/><rect x="347" y="115.66666666666667" width="57.833333333333336" height="57.833333333333336" fill="#ffffff"/><circle cx="361.46" cy="130.13" r="14.46" fill="#e7e7e7"/><circle cx="390.38" cy="130.13" r="14.46" fill="#ebebeb"/><circle cx="361.46" cy="159.04000000000002" r="14.46" fill="#fbfb58"/><circle cx="390.38" cy="159.04000000000002" r="14.46" fill="#ebebeb"/><rect x="404.83333333333337" y="115.66666666666667" width="57.833333333333336" height="57.833333333333336" fill="#ffffff"/><circle cx="419.28999999999996" cy="130.13" r="14.46" fill="#fefec5"/><circle cx="448.21" cy="130.13" r="14.46" fill="#3a3b3d"/><circle cx="419.28999999999996" cy="159.04000000000002" r="14.46" fill="#f1f1f1"/><circle cx="448.21" cy="159.04000000000002" r="14.46" fill="#e6e6e6"/><circle cx="491.58500000000004" cy="144.585" r="28.915" fill="#fbfb64"/><rect x="520.5" y="115.66666666666667" width="57.833333333333336" height="57.833333333333336" fill="#ffffff"/><circle cx="534.96" cy="130.13" r="14.46" fill="#fffffa"/><circle cx="563.88" cy="130.13" r="14.46" fill="#ffffef"/><circle cx="534.96" cy="159.04000000000002" r="14.46" fill="#fffffd"/><circle cx="563.88" cy="159.04000000000002" r="14.46" fill="#bfbfc0"/><rect x="578.3333333333334" y="115.66666666666667" width="57.833333333333336" height="57.833333333333336" fill="#ffffff"/><circle cx="592.7900000000001" cy="130.13" r="14.46" fill="#eeeeef"/><circle cx="621.71" cy="130.13" r="14.46" fill="#fbfb69"/><circle cx="592.7900000000001" cy="159.04000000000002" r="14.46" fill="#fdfd9a"/><circle cx="621.71" cy="159.04000000000002" r="14.46" fill="#313234"/><rect x="0" y="173.5" width="57.833333333333336" height="57.833333333333336" fill="#ffffff"/><circle cx="14.46" cy="187.96" r="14.46" fill="#fefec5"/><circle cx="43.38" cy="187.96" r="14.46" fill="#fcfc76"/><circle cx="14.46" cy="216.88" r="14.46" fill="#fffff4"/><circle cx="43.38" cy="216.88" r="14.46" fill="#878789"/><circle cx="86.745" cy="202.415" r="28.915" fill="#4c4d4f"/><rect x="115.66666666666667" y="173.5" width="57.833333333333336" height="57.833333333333336" fill="#ffffff"/><circle cx="130.13" cy="187.96" r="14.46" fill="#969697"/><circle cx="159.04000000000002" cy="187.96" r="14.46" fill="#e8e8e8"/><circle cx="130.13" cy="216.88" r="14.46" fill="#fcfc96"/><circle cx="159.04000000000002" cy="216.88" r="14.46" fill="#dddddd"/><circle cx="202.415" cy="202.415" r="28.915" fill="#fbfb5a"/><rect x="231.33333333333334" y="173.5" width="57.833333333333336" height="57.833333333333336" fill="#ffffff"/><circle cx="245.79000000000002" cy="187.96" r="14.46" fill="#b7b8b8"/><circle cx="274.71" cy="187.96" r="14.46" fill="#fcfc7c"/><circle cx="245.79000000000002" cy="216.88" r="14.46" fill="#fcfc70"/><circle cx="274.71" cy="216.88" r="14.46" fill="#fcfc7e"/><rect x="289.1666666666667" y="173.5" width="57.833333333333336" height="57.833333333333336" fill="#ffffff"/><circle cx="303.63" cy="187.96" r="14.46" fill="#ececec"/><circle cx="332.53999999999996" cy="187.96" r="14.46" fill="#fbfb70"/><circle cx="303.63" cy="216.88" r="14.46" fill="#fefee3"/><circle cx="332.53999999999996" cy="216.88" r="14.46" fill="#fcfc85"/><rect x="347" y="173.5" width="57.833333333333336" height="57.833333333333336" fill="#ffffff"/><circle cx="361.46" cy="187.96" r="14.46" fill="#767678"/><circle cx="390.38" cy="187.96" r="14.46" fill="#ffffec"/><circle cx="361.46" cy="216.88" r="14.46" fill="#f4f4f4"/><circle cx="390.38" cy="216.88" r="14.46" fill="#fcfc85"/><circle cx="433.745" cy="202.415" r="28.915" fill="#fafa40"/><circle cx="491.58500000000004" cy="202.415" r="28.915" fill="#fffff8"/><rect x="520.5" y="173.5" width="57.833333333333336" height="57.833333333333336" fill="#ffffff"/><circle cx="534.96" cy="187.96" r="14.46" fill="#fbfb68"/><circle cx="563.88" cy="187.96" r="14.46" fill="#fdfd9c"/><circle cx="534.96" cy="216.88" r="14.46" fill="#fefed4"/><circle cx="563.88" cy="216.88" r="14.46" fill="#a3a4a5"/><circle cx="607.245" cy="202.415" r="28.915" fill="#bcbdbd"/><rect x="0" y="231.33333333333334" width="57.833333333333336" height="57.833333333333336" fill="#ffffff"/><circle cx="14.46" cy="245.79000000000002" r="14.46" fill="#404143"/><circle cx="43.38" cy="245.79000000000002" r="14.46" fill="#929394"/><circle cx="14.46" cy="274.71" r="14.46" fill="#a3a4a5"/><circle cx="43.38" cy="274.71" r="14.46" fill="#fffff7"/><rect x="57.833333333333336" y="231.33333333333334" width="57.833333333333336" height="57.833333333333336" fill="#ffffff"/><circle cx="72.28999999999999" cy="245.79000000000002" r="14.46" fill="#fffff4"/><circle cx="101.21000000000001" cy="245.79000000000002" r="14.46" fill="#393a3c"/><circle cx="72.28999999999999" cy="274.71" r="14.46" fill="#fbfb65"/><circle cx="101.21000000000001" cy="274.71" r="14.46" fill="#fbfb4f"/><rect x="115.66666666666667" y="231.33333333333334" width="57.833333333333336" height="57.833333333333336" fill="#ffffff"/><circle cx="130.13" cy="245.79000000000002" r="14.46" fill="#fbfb63"/><circle cx="159.04000000000002" cy="245.79000000000002" r="14.46" fill="#fcfc72"/><circle cx="130.13" cy="274.71" r="14.46" fill="#fbfb4b"/><circle cx="159.04000000000002" cy="274.71" r="14.46" fill="#2b2c2e"/><rect x="173.5" y="231.33333333333334" width="57.833333333333336" height="57.833333333333336" fill="#ffffff"/><circle cx="187.96" cy="245.79000000000002" r="14.46" fill="#636465"/><circle cx="216.88" cy="245.79000000000002" r="14.46" fill="#fbfb4f"/><circle cx="187.96" cy="274.71" r="14.46" fill="#fefee9"/><circle cx="216.88" cy="274.71" r="14.46" fill="#fbfb52"/><circle cx="260.245" cy="260.245" r="28.915" fill="#fcfc83"/><circle cx="318.08500000000004" cy="260.245" r="28.915" fill="#37383a"/><rect x="347" y="231.33333333333334" width="57.833333333333336" height="57.833333333333336" fill="#ffffff"/><circle cx="361.46" cy="245.79000000000002" r="14.46" fill="#c1c2c2"/><circle cx="390.38" cy="245.79000000000002" r="14.46" fill="#d0d1d1"/><circle cx="361.46" cy="274.71" r="14.46" fill="#e1e1e2"/><circle cx="390.38" cy="274.71" r="14.46" fill="#fffff7"/><rect x="404.83333333333337" y="231.33333333333334" width="57.833333333333336" height="57.833333333333336" fill="#ffffff"/><circle cx="419.28999999999996" cy="245.79000000000002" r="14.46" fill="#565658"/><circle cx="448.21" cy="245.79000000000002" r="14.46" fill="#ffffef"/><circle cx="419.28999999999996" cy="274.71" r="14.46" fill="#fdfdbf"/><circle cx="448.21" cy="274.71" r="14.46" fill="#fffff2"/><rect x="462.6666666666667" y="231.33333333333334" width="57.833333333333336" height="57.833333333333336" fill="#ffffff"/><circle cx="477.13" cy="245.79000000000002" r="14.46" fill="#828283"/><circle cx="506.03999999999996" cy="245.79000000000002" r="14.46" fill="#fffff8"/><circle cx="477.13" cy="274.71" r="14.46" fill="#fdfdbb"/><circle cx="506.03999999999996" cy="274.71" r="14.46" fill="#b8b9b9"/><circle cx="549.415" cy="260.245" r="28.915" fill="#a1a1a2"/><circle cx="607.245" cy="260.245" r="28.915" fill="#fdfdae"/><circle cx="28.915" cy="318.08500000000004" r="28.915" fill="#b2b2b3"/><circle cx="86.745" cy="318.08500000000004" r="28.915" fill="#fdfdb1"/><rect x="115.66666666666667" y="289.1666666666667" width="57.833333333333336" height="57.833333333333336" fill="#ffffff"/><circle cx="130.13" cy="303.63" r="14.46" fill="#fdfdb0"/><circle cx="159.04000000000002" cy="303.63" r="14.46" fill="#919192"/><circle cx="130.13" cy="332.53999999999996" r="14.46" fill="#fbfb6f"/><circle cx="159.04000000000002" cy="332.53999999999996" r="14.46" fill="#fbfb59"/><rect x="173.5" y="289.1666666666667" width="57.833333333333336" height="57.833333333333336" fill="#ffffff"/><circle cx="187.96" cy="303.63" r="14.46" fill="#fafa3e"/><circle cx="216.88" cy="303.63" r="14.46" fill="#fefed5"/><circle cx="187.96" cy="332.53999999999996" r="14.46" fill="#e6e7e7"/><circle cx="216.88" cy="332.53999999999996" r="14.46" fill="#b6b6b7"/><rect x="231.33333333333334" y="289.1666666666667" width="57.833333333333336" height="57.833333333333336" fill="#ffffff"/><circle cx="245.79000000000002" cy="303.63" r="14.46" fill="#fbfb4c"/><circle cx="274.71" cy="303.63" r="14.46" fill="#fcfc91"/><circle cx="245.79000000000002" cy="332.53999999999996" r="14.46" fill="#fcfc77"/><circle cx="274.71" cy="332.53999999999996" r="14.46" fill="#fdfdab"/><circle cx="318.08500000000004" cy="318.08500000000004" r="28.915" fill="#fafa40"/><circle cx="375.915" cy="318.08500000000004" r="28.915" fill="#888889"/><rect x="404.83333333333337" y="289.1666666666667" width="57.833333333333336" height="57.833333333333336" fill="#ffffff"/><circle cx="419.28999999999996" cy="303.63" r="14.46" fill="#ebebeb"/><circle cx="448.21" cy="303.63" r="14.46" fill="#b3b3b4"/><circle cx="419.28999999999996" cy="332.53999999999996" r="14.46" fill="#fefee6"/><circle cx="448.21" cy="332.53999999999996" r="14.46" fill="#3c3d3f"/><rect x="462.6666666666667" y="289.1666666666667" width="57.833333333333336" height="57.833333333333336" fill="#ffffff"/><circle cx="477.13" cy="303.63" r="14.46" fill="#f9f9f9"/><circle cx="506.03999999999996" cy="303.63" r="14.46" fill="#fafa3a"/><circle cx="477.13" cy="332.53999999999996" r="14.46" fill="#e7e7e8"/><circle cx="506.03999999999996" cy="332.53999999999996" r="14.46" fill="#fafafa"/><rect x="520.5" y="289.1666666666667" width="57.833333333333336" height="57.833333333333336" fill="#ffffff"/><circle cx="534.96" cy="303.63" r="14.46" fill="#79797b"/><circle cx="563.88" cy="303.63" r="14.46" fill="#dddddd"/><circle cx="534.96" cy="332.53999999999996" r="14.46" fill="#444546"/><circle cx="563.88" cy="332.53999999999996" r="14.46" fill="#7a7b7c"/><circle cx="607.245" cy="318.08500000000004" r="28.915" fill="#a8a8a9"/></g></svg>